<?xml version="1.0" standalone="no"?>
<!DOCTYPE svg PUBLIC "-//W3C//DTD SVG 20010904//EN"
 "http://www.w3.org/TR/2001/REC-SVG-20010904/DTD/svg10.dtd">
<svg version="1.0" xmlns="http://www.w3.org/2000/svg"
 width="512.000000pt" height="512.000000pt" viewBox="0 0 512.000000 512.000000"
 preserveAspectRatio="xMidYMid meet">

<g transform="translate(0.000000,512.000000) scale(0.100000,-0.100000)"
fill="#000000" stroke="none">
<path d="M2245 5109 c-583 -79 -1062 -308 -1474 -704 -371 -356 -634 -841
-731 -1346 -73 -377 -41 -1012 58 -1154 102 -146 346 -105 393 67 12 48 10 70
-22 248 -19 104 -23 160 -24 335 0 271 23 430 97 655 107 329 275 604 520 851
303 304 717 519 1134 588 l71 12 61 72 c83 99 190 208 297 305 l90 82 -205 -1
c-113 -1 -232 -5 -265 -10z"/>
<path d="M560 1333 c0 -33 337 -1274 349 -1286 9 -9 51 29 176 153 l165 165
133 -67 c148 -75 223 -107 347 -150 484 -165 1040 -176 1538 -32 l54 16 -122
64 c-127 67 -249 143 -360 224 l-65 48 -150 -5 c-327 -12 -671 56 -958 190
l-88 40 148 149 c128 128 146 150 133 161 -8 8 -231 71 -495 142 -264 70 -546
145 -626 166 -167 44 -179 46 -179 22z"/>
</g>
</svg>
